# AST/ASF file generated using VICON BodyLanguage
# -----------------------------------------------
:version 1.10
:name VICON
:units
  mass 1.0
  length 0.45
  angle deg
:documentation
   .ast/.asf automatically generated from VICON data using
   VICON BodyBuilder and BodyLanguage model FoxedUp or BRILLIANT.MOD
:root
   order TX TY TZ RX RY RZ
   axis XYZ
   position 0 0 0  
   orientation 0 0 0 
:bonedata
  begin
     id 1 
     name lhipjoint
     direction 0.576517 -0.752066 0.319413 
     length 2.45433 
     axis 0 0 0  XYZ
  end
  begin
     id 2 
     name lfemur
     direction 0.34202 -0.939693 0  
     length 7.54459  
     axis 0 0 20  XYZ
    dof rx ry rz
    limits (-160.0 20.0)
           (-70.0 70.0)
           (-60.0 70.0)
  end
  begin
     id 3 
     name ltibia
     direction 0.34202 -0.939693 0   
     length 7.73986   
     axis 0 0 20   XYZ
    dof rx
    limits (-10.0 170.0)
  end
  begin
     id 4 
     name lfoot
     direction 0.090693 -0.249177 0.964202   
     length 2.28437   
     axis -90 7.62852e-016 20   XYZ
    dof rx rz
    limits (-45.0 90.0)
           (-70.0 20.0)
  end
  begin
     id 5 
     name ltoes
     direction 1.5356e-011 -4.21928e-011 1   
     length 1.14243   
     axis -90 7.62852e-016 20   XYZ
    dof rx
    limits (-90.0 20.0)
  end
  begin
     id 6 
     name rhipjoint
     direction -0.573937 -0.753736 0.320122   
     length 2.44889  
     axis 0 0 0  XYZ 
  end
  begin
     id 7 
     name rfemur
     direction -0.34202 -0.939693 0   
     length 7.50166   
     axis 0 0 -20   XYZ
    dof rx ry rz
    limits (-160.0 20.0)
           (-70.0 70.0)
           (-70.0 60.0)
  end
  begin
     id 8 
     name rtibia
     direction -0.34202 -0.939693 0   
     length 7.54266   
     axis 0 0 -20   XYZ
    dof rx
    limits (-10.0 170.0)
 end
 begin
     id 9 
     name rfoot
     direction -0.114017 -0.31326 0.942798   
     length 2.34212  
     axis -90 -7.62852e-016 -20   XYZ
    dof rx rz
    limits (-45.0 90.0)
           (-20.0 70.0)
  end
  begin
     id 10 
     name rtoes
     direction -1.53557e-011 -4.21867e-011 1   
     length 1.16246   
     axis -90 -7.62852e-016 -20   XYZ
    dof rx
    limits (-90.0 20.0)
  end
  begin
     id 11 
     name lowerback
     direction -0.0228371 0.999155 -0.034167   
     length 2.0537   
     axis 0 0 0   XYZ
    dof rx ry rz
    limits (-20.0 45.0)
           (-30.0 30.0)
           (-30.0 30.0)
  end
  begin
     id 12 
     name upperback
     direction 0.0198981 0.999794 0.00389455   
     length 2.05302   
     axis 0 0 0   XYZ
    dof rx ry rz
    limits (-20.0 45.0)
           (-30.0 30.0)
           (-30.0 30.0)
  end
  begin
     id 13 
     name thorax
     direction 0.0304566 0.99935 0.0192987   
     length 2.05315   
     axis 0 0 0   XYZ
    dof rx ry rz
    limits (-20.0 45.0)
           (-30.0 30.0)
           (-30.0 30.0)
  end
  begin
     id 14 
     name lowerneck
     direction -0.0196762 0.99417 0.106017   
     length 1.82056   
     axis 0 0 0   XYZ
    dof rx ry rz
    limits (-20.0 45.0)
           (-30.0 30.0)
           (-30.0 30.0)
  end
  begin
     id 15 
     name upperneck
     direction 0.00517787 0.9802 -0.197944   
     length 1.83835   
     axis 0 0 0   XYZ
    dof rx ry rz
    limits (-20.0 45.0)
           (-30.0 30.0)
           (-30.0 30.0)
  end
  begin
     id 16
     name head
     direction 0.00211419 0.996945 -0.078081  
     length 1.85629  
     axis 0 0 0   XYZ
    dof rx ry rz
    limits (-20.0 45.0)
           (-30.0 30.0)
           (-30.0 30.0)
  end
  begin
     id 17 
     name lclavicle
     direction 0.930001 0.365811 -0.0357824  
     length 3.81961  
     axis 0 0 0   XYZ
    dof ry rz
    limits (-20.0 10.0)
           (0.0 20.0)
  end
  begin
     id 18 
     name lhumerus
     direction 1 -4.48968e-011 -3.06644e-027   
     length 5.14507   
     axis 180 -30 -90   XYZ
    dof rx ry rz
    limits (-60.0 90.0)
           (-90.0 90.0)
           (-90.0 90.0)
  end
  begin
     id 19
     name lradius
     direction 1 -4.48965e-011 9.06925e-028   
     length 3.50646   
     axis 180 -30 -90   XYZ
    dof rx
    limits (-10.0 170.0)
  end
  begin
     id 20
     name lwrist
     direction 1 -4.48957e-011 1.03922e-027   
     length 1.75323   
     axis -2.56395e-016 90 90   XYZ
    dof ry
    limits (-180.0 0.0)
 end
  begin
     id 21 
     name lhand
     direction 1 -4.48967e-011 2.08017e-027   
     length 0.629969   
     axis -1.32723e-015 90 90   XYZ
    dof rx rz
    limits (-90.0 90.0)
           (-45.0 45.0)
  end
  begin
     id 22 
     name lfingers
     direction 1 -4.49089e-011 4.20095e-027   
     length 0.507897   
     axis -2.6545e-015 90 90   XYZ
    dof rx
    limits (0.0 90.0)
  end
  begin
     id 23
     name lthumb
     direction 0.707107 -6.35001e-011 0.707107   
     length 0.729241   
     axis -90 45 5.05613e-014   XYZ
    dof rx rz
    limits (-45.0 45.0)
           (-45.0 45.0)
  end
  begin
     id 24 
     name rclavicle
     direction -0.881882 0.464123 -0.0829113   
     length 3.47515  
     axis 0 0 0   XYZ 
    dof ry rz
    limits (-10.0 20.0)
           (-20.0 0.0)
  end
  begin
     id 25 
     name rhumerus
     direction -1 -4.48961e-011 -1.55672e-027  
     length 5.232   
     axis 180 30 90   XYZ
    dof rx ry rz
    limits (-90.0 60.0)
           (-90.0 90.0)
           (-90.0 90.0)
  end
  begin
     id 26 
     name rradius
     direction -1 -4.48963e-011 6.18178e-029   
     length 3.65641   
     axis 180 30 90   XYZ
    dof rx
    limits (-10.0 170.0)
  end
  begin
     id 27 
     name rwrist
     direction -1 -4.48982e-011 1.04136e-027   
     length 1.8282   
     axis -2.56395e-016 -90 -90   XYZ
    dof ry
    limits (-180.0 0.0)
  end
  begin
     id 28
     name rhand
     direction -1 -4.48929e-011 2.07378e-027   
     length 0.656807   
     axis -1.32723e-015 -90 -90   XYZ
    dof rx rz
    limits (-90.0 90.0)
           (-45.0 45.0)
  end
  begin
     id 29
     name rfingers
     direction -1 -4.489e-011 4.13816e-027   
     length 0.529535   
     axis -2.6545e-015 -90 -90   XYZ
    dof rx
    limits (0.0 90.0)
  end
  begin
     id 30
     name rthumb
     direction -0.707107 -6.34843e-011 0.707107   
     length 0.760309   
     axis -90 -45 -5.05613e-014   XYZ
    dof rx rz
    limits (-45.0 45.0)
           (-45.0 45.0)
  end
:hierarchy
  begin
    root lhipjoint rhipjoint lowerback
    lhipjoint lfemur
    lfemur ltibia
    ltibia lfoot
    lfoot ltoes
    rhipjoint rfemur
    rfemur rtibia
    rtibia rfoot
    rfoot rtoes
    lowerback upperback
    upperback thorax
    thorax lowerneck lclavicle rclavicle
    lowerneck upperneck
    upperneck head
    lclavicle lhumerus
    lhumerus lradius
    lradius lwrist
    lwrist lhand lthumb
    lhand lfingers
    rclavicle rhumerus
    rhumerus rradius
    rradius rwrist
    rwrist rhand rthumb
    rhand rfingers
  end

#!OML:ASF H:\ManfredETheater\Project 1\Capture day 1\Session 1\subject.ASF
:FULLY-SPECIFIED
:DEGREES
1
root 17.0828 15.045 41.1128 -151.565 -15.5775 177.708
lowerback 26.0742 -1.82555 0.923411
upperback 2.05382 -2.23551 3.33498
thorax -12.1533 -1.18556 4.10944
lowerneck -18.0384 1.37841 -3.97889
upperneck -13.1591 0.0769296 -2.66787
head -1.27756 -0.82132 -0.161884
rclavicle 4.69132e-014 7.15625e-015
rhumerus -59.7513 -5.09093 -73.9354
rradius 64.3387
rwrist -10.9884
rhand -31.7644 -5.76252
rfingers 7.12502
rthumb -5.02125 -35.683
lclavicle 4.69132e-014 7.15625e-015
lhumerus -30.8247 -17.6446 96.9088
lradius 100.877
lwrist 5.90901
lhand -24.4329 -11.9897
lfingers 7.12502
lthumb 2.05926 17.9801
rfemur -67.8545 -6.58976 27.6814
rtibia 71.0217
rfoot -24.9935 -14.9195
rtoes -28.6275
lfemur -18.1548 -1.52779 -23.7221
ltibia 71.4783
lfoot 3.78534 -2.71027
ltoes -9.18822
2
root 17.0015 15.0522 40.752 -151.683 -15.8035 177.872
lowerback 26.4911 -1.81699 1.41488
upperback 2.19487 -2.09772 3.42111
thorax -12.2341 -1.15929 3.89499
lowerneck -18.0994 1.33835 -3.91015
upperneck -13.4462 -0.0700635 -2.89699
head -1.36289 -0.920752 -0.250025
rclavicle -2.46493e-014 -2.34566e-014
rhumerus -56.4536 -6.00243 -74.5164
rradius 61.9719
rwrist -13.1616
rhand -35.5472 -0.965871
rfingers 7.12502
rthumb -8.67282 -30.7677
lclavicle -2.46493e-014 -2.34566e-014
lhumerus -30.7089 -15.2888 96.7411
lradius 94.9791
lwrist 6.81874
lhand -24.9834 -11.8822
lfingers 7.12502
lthumb 1.5276 18.0921
rfemur -66.14 -6.51894 27.6672
rtibia 71.3046
rfoot -26.3095 -15.823
rtoes -30.5575
lfemur -21.5657 -1.14898 -23.3966
ltibia 75.8075
lfoot 3.36917 -1.50472
ltoes -9.30722
3
root 16.9268 15.0155 40.4106 -151.755 -15.932 177.969
lowerback 26.7957 -1.74237 1.76125
upperback 2.29527 -1.91092 3.46381
thorax -12.2984 -1.10056 3.69042
lowerneck -17.8814 1.29237 -3.81178
upperneck -13.8281 -0.23401 -3.15631
head -1.5211 -1.01765 -0.352066
rclavicle 1.86858e-014 -1.86858e-014
rhumerus -53.1609 -6.82001 -75.1149
rradius 60.7597
rwrist -15.1891
rhand -37.0415 -0.879632
rfingers 7.12502
rthumb -10.1147 -30.6165
lclavicle 1.86858e-014 -1.86858e-014
lhumerus -30.557 -12.9875 96.3859
lradius 88.8203
lwrist 8.44894
lhand -26.0647 -12.2331
lfingers 7.12502
lthumb 0.483243 17.7461
rfemur -64.4112 -6.44695 27.7219
rtibia 71.6549
rfoot -26.9073 -17.7635
rtoes -34.4539
lfemur -25.0889 -0.69834 -23.2167
ltibia 80.0079
lfoot 0.564214 1.07923
ltoes -18.4059
4
root 16.8441 15.0008 40.05 -151.928 -15.966 178.143
lowerback 26.9081 -1.61467 2.1563
upperback 2.50305 -1.66536 3.48156
thorax -12.1368 -1.02645 3.39083
lowerneck -17.8335 1.21572 -3.71026
upperneck -14.1561 -0.438231 -3.38689
head -1.638 -1.14128 -0.447761
rclavicle -3.65764e-014 -1.98785e-014
rhumerus -49.6811 -7.56624 -75.731
rradius 59.8194
rwrist -15.7689
rhand -36.7868 -3.47315
rfingers 7.12502
rthumb -9.86897 -33.2219
lclavicle -3.65764e-014 -1.98785e-014
lhumerus -30.2066 -10.6628 95.7662
lradius 82.486
lwrist 10.3281
lhand -26.5277 -12.1898
lfingers 7.12502
lthumb 0.036092 17.7899
rfemur -62.7313 -6.31612 27.6319
rtibia 72.0008
rfoot -28.1108 -18.3136
rtoes -35.3001
lfemur -28.4906 -0.271391 -22.9917
ltibia 83.8157
lfoot -1.40882 3.08537
ltoes -19.5261
5
root 16.7535 14.9993 39.6651 -152.301 -15.7775 178.493
lowerback 27.0284 -1.35084 2.47052
upperback 2.57065 -1.24155 3.51912
thorax -12.1424 -0.856725 3.10186
lowerneck -17.7186 1.10664 -3.65989
upperneck -14.159 -0.604117 -3.63345
head -1.65719 -1.21904 -0.540024
rclavicle 9.93923e-015 -1.78906e-014
rhumerus -46.9761 -7.98599 -76.5735
rradius 60.5262
rwrist -13.2034
rhand -35.9848 -3.96983
rfingers 7.12502
rthumb -9.09516 -33.7537
lclavicle 9.93923e-015 -1.78906e-014
lhumerus -30.3518 -8.91431 95.0134
lradius 76.0269
lwrist 13.0173
lhand -28.1637 -13.4278
lfingers 7.12502
lthumb -1.54406 16.5463
rfemur -60.7793 -6.23269 27.6627
rtibia 72.2981
rfoot -29.3592 -18.3419
rtoes -36.024
lfemur -32.0216 0.42228 -22.6768
ltibia 87.0937
lfoot -3.48044 4.53262
ltoes -18.7714
6
root 16.6685 14.9599 39.3032 -152.613 -15.6812 178.817
lowerback 27.1954 -1.15174 2.83798
upperback 2.6798 -0.89199 3.5698
thorax -12.1178 -0.726653 2.82403
lowerneck -17.6338 1.02109 -3.60029
upperneck -14.2663 -0.766004 -3.87391
head -1.7076 -1.30389 -0.631463
rclavicle -1.35174e-014 3.97569e-015
rhumerus -44.1005 -8.2609 -77.4274
rradius 60.7673
rwrist -12.7764
rhand -35.9143 -3.95189
rfingers 7.12502
rthumb -9.02708 -33.7387
lclavicle -1.35174e-014 3.97569e-015
lhumerus -30.5198 -6.77667 94.1675
lradius 70.0686
lwrist 14.2032
lhand -28.7876 -13.7436
lfingers 7.12502
lthumb -2.14662 16.2254
rfemur -58.984 -6.12705 27.7589
rtibia 72.6633
rfoot -30.3573 -18.9261
rtoes -37.4203
lfemur -35.5865 1.04886 -22.4009
ltibia 90.3403
lfoot -5.06411 6.13629
ltoes -19.7838
7
root 16.5809 14.9215 38.9358 -152.999 -15.4933 179.225
lowerback 27.3397 -0.916266 3.20128
upperback 2.78084 -0.496498 3.61887
thorax -12.0868 -0.575228 2.5283
lowerneck -17.5591 0.935764 -3.54791
upperneck -14.2962 -0.908863 -4.09954
head -1.73098 -1.37464 -0.716813
rclavicle 1.03368e-014 0
rhumerus -41.4036 -8.23775 -78.406
rradius 61.6258
rwrist -12.1665
rhand -35.4527 -3.94398
rfingers 7.12502
rthumb -8.58163 -33.7496
lclavicle 1.03368e-014 0
lhumerus -30.9526 -4.76467 93.1242
lradius 64.4152
lwrist 14.7582
lhand -29.279 -14.1044
lfingers 7.12502
lthumb -2.62119 15.8592
rfemur -57.0713 -6.02124 27.9084
rtibia 72.9826
rfoot -31.3592 -19.3325
rtoes -38.6395
lfemur -39.1746 1.76993 -22.0955
ltibia 93.2395
lfoot -6.66546 7.48626
ltoes -20.2815
8
root 16.4908 14.8689 38.5678 -153.464 -15.2017 179.725
lowerback 27.4722 -0.65218 3.56479
upperback 2.8757 -0.0646669 3.6604
thorax -12.052 -0.407321 2.20943
lowerneck -17.5061 0.858281 -3.50015
upperneck -14.2475 -1.02153 -4.29719
head -1.72473 -1.42658 -0.791934
rclavicle 1.11319e-014 2.3059e-014
rhumerus -38.9016 -7.84634 -79.5206
rradius 63.0538
rwrist -11.5724
rhand -34.7558 -3.5889
rfingers 7.12502
rthumb -7.90904 -33.4209
lclavicle 1.11319e-014 2.3059e-014
lhumerus -31.7537 -2.9835 91.8784
lradius 59.2547
lwrist 14.4893
lhand -29.57 -14.5391
lfingers 7.12502
lthumb -2.90223 15.4209
rfemur -55.1301 -5.90456 28.1115
rtibia 73.3401
rfoot -32.373 -19.5352
rtoes -39.6884
lfemur -42.8339 2.58122 -21.7643
ltibia 95.8908
lfoot -8.31607 8.48324
ltoes -20.037
